<svg xmlns="http://www.w3.org/2000/svg" viewBox="0 0 320 320">
  <g data-part="rotating-disc">
    <defs>
      <path id="spindle-compass-light-b-point" d="M160 68L146 139L160 160L174 139Z"/>
      <path id="spindle-compass-light-b-petal" d="M160 122L149 150L160 160L171 150Z"/>
      <path id="spindle-compass-light-b-snap" d="M160 21L156 27L160 33L164 27Z"/>
    </defs>
    <circle cx="160" cy="160" r="153" fill="#ffffff" stroke="#17347f" stroke-width="1.5"/>
    <circle cx="160" cy="160" r="146" fill="#f3f7ff" stroke="#dbe6fa" stroke-width="1"/>
    <circle cx="160" cy="160" r="137" fill="#ffffff" stroke="#8ba3cf" stroke-width="0.9"/>
    <path d="M70.61 54.59A138 138 0 0 1 249.39 54.59" fill="none" stroke="#FF7A45" stroke-width="1.5" stroke-linecap="round"/>
    <path d="M249.39 54.59A138 138 0 1 1 70.61 54.59" fill="none" stroke="#dbe6fa" stroke-width="1.5" stroke-linecap="round"/>
    <g fill="none" stroke="#3ca8df" stroke-width="1" stroke-linecap="round">
      <path d="M77 146Q98 135 119 146T161 146T203 146T245 146"/>
      <path d="M82 178Q102 167 122 178T162 178T202 178T238 178"/>
    </g>
    <g fill="#f3f7ff" stroke="#17347f" stroke-width="2" stroke-linejoin="round">
      <use href="#spindle-compass-light-b-point"/>
      <use href="#spindle-compass-light-b-point" transform="rotate(90 160 160)"/>
      <use href="#spindle-compass-light-b-point" transform="rotate(180 160 160)"/>
      <use href="#spindle-compass-light-b-point" transform="rotate(270 160 160)"/>
    </g>
    <g fill="none" stroke="#3a4c78" stroke-width="1" stroke-linecap="round">
      <path d="M160 82L151 133"/>
      <path d="M160 82L151 133" transform="rotate(90 160 160)"/>
      <path d="M160 82L151 133" transform="rotate(180 160 160)"/>
      <path d="M160 82L151 133" transform="rotate(270 160 160)"/>
    </g>
    <g stroke="#17347f" stroke-width="1.2" stroke-linejoin="round">
      <use href="#spindle-compass-light-b-petal" fill="#17347f"/>
      <use href="#spindle-compass-light-b-petal" fill="#3ca8df" transform="rotate(90 160 160)"/>
      <use href="#spindle-compass-light-b-petal" fill="#3a4c78" transform="rotate(180 160 160)"/>
      <use href="#spindle-compass-light-b-petal" fill="#3ca8df" transform="rotate(270 160 160)"/>
    </g>
    <path d="M160 128L192 160L160 192L128 160Z" fill="none" stroke="#17347f" stroke-width="1"/>
    <path d="M160 139L181 160L160 181L139 160Z" fill="#e8f0ff" stroke="#17347f" stroke-width="1"/>
    <g fill="#2f5cff" stroke="#ffffff" stroke-width="1">
      <use href="#spindle-compass-light-b-snap"/>
      <use href="#spindle-compass-light-b-snap" transform="rotate(45 160 160)"/>
      <use href="#spindle-compass-light-b-snap" transform="rotate(90 160 160)"/>
      <use href="#spindle-compass-light-b-snap" transform="rotate(135 160 160)"/>
      <use href="#spindle-compass-light-b-snap" transform="rotate(180 160 160)"/>
      <use href="#spindle-compass-light-b-snap" transform="rotate(225 160 160)"/>
      <use href="#spindle-compass-light-b-snap" transform="rotate(270 160 160)"/>
      <use href="#spindle-compass-light-b-snap" transform="rotate(315 160 160)"/>
    </g>
    <path d="M160 21L156 27L160 33L164 27Z" fill="#FF7A45" stroke="#ffffff" stroke-width="1"/>
    <circle cx="160" cy="160" r="10" fill="#ffffff" stroke="#17347f" stroke-width="1.5"/>
    <path d="M160 151L169 160L160 169L151 160Z" fill="#1e4fd8"/>
    <g data-part="ring-labels" fill="#17347f" font-family="inherit" font-size="11" font-weight="650" text-anchor="middle" dominant-baseline="middle" letter-spacing="0.55">
      <text x="160" y="48" fill="#FF7A45">N</text>
      <text x="239.2" y="80.8">NE</text>
      <text x="272" y="160">E</text>
      <text x="239.2" y="239.2">SE</text>
      <text x="160" y="272">S</text>
      <text x="80.8" y="239.2">SW</text>
      <text x="48" y="160">W</text>
      <text x="80.8" y="80.8">NW</text>
    </g>
  </g>
  <g data-part="fixed-indicator">
    <path d="M160 2L150 17L160 34L170 17Z" fill="#FF7A45" stroke="#ffffff" stroke-width="2" stroke-linejoin="round"/>
    <circle cx="160" cy="17" r="2.5" fill="#17347f"/>
    <path d="M160 34V42" fill="none" stroke="#FF7A45" stroke-width="2.5" stroke-linecap="round"/>
  </g>
</svg>
