<svg xmlns="http://www.w3.org/2000/svg" viewBox="0 0 320 320" role="img" aria-label="전통 항해 로즈형 스핀 나침반, 북동 45도 선택">
  <path d="M0 0 H320 V320 H0 Z" fill="#081426"/>
  <g data-part="rotating-disc" aria-label="회전 로즈" transform="rotate(-45 160 160)">
    <circle cx="160" cy="160" r="149" fill="#0f2540" stroke="#6d86b4" stroke-width="2"/>
    <circle cx="160" cy="160" r="139" fill="none" stroke="#17345a" stroke-width="8"/>
    <circle cx="160" cy="160" r="128" fill="none" stroke="#a9bfe3" stroke-width="1" opacity="0.55"/>
    <g fill="none" stroke="#a9bfe3" stroke-linecap="round">
      <line x1="160" y1="12" x2="160" y2="24" stroke-width="2.5"/>
      <line x1="160" y1="13" x2="160" y2="20" transform="rotate(11.25 160 160)"/>
      <line x1="160" y1="13" x2="160" y2="20" transform="rotate(22.5 160 160)"/>
      <line x1="160" y1="13" x2="160" y2="20" transform="rotate(33.75 160 160)"/>
      <line x1="160" y1="12" x2="160" y2="24" stroke-width="2.5" transform="rotate(45 160 160)"/>
      <line x1="160" y1="13" x2="160" y2="20" transform="rotate(56.25 160 160)"/>
      <line x1="160" y1="13" x2="160" y2="20" transform="rotate(67.5 160 160)"/>
      <line x1="160" y1="13" x2="160" y2="20" transform="rotate(78.75 160 160)"/>
      <line x1="160" y1="12" x2="160" y2="24" stroke-width="2.5" transform="rotate(90 160 160)"/>
      <line x1="160" y1="13" x2="160" y2="20" transform="rotate(101.25 160 160)"/>
      <line x1="160" y1="13" x2="160" y2="20" transform="rotate(112.5 160 160)"/>
      <line x1="160" y1="13" x2="160" y2="20" transform="rotate(123.75 160 160)"/>
      <line x1="160" y1="12" x2="160" y2="24" stroke-width="2.5" transform="rotate(135 160 160)"/>
      <line x1="160" y1="13" x2="160" y2="20" transform="rotate(146.25 160 160)"/>
      <line x1="160" y1="13" x2="160" y2="20" transform="rotate(157.5 160 160)"/>
      <line x1="160" y1="13" x2="160" y2="20" transform="rotate(168.75 160 160)"/>
      <line x1="160" y1="12" x2="160" y2="24" stroke-width="2.5" transform="rotate(180 160 160)"/>
      <line x1="160" y1="13" x2="160" y2="20" transform="rotate(191.25 160 160)"/>
      <line x1="160" y1="13" x2="160" y2="20" transform="rotate(202.5 160 160)"/>
      <line x1="160" y1="13" x2="160" y2="20" transform="rotate(213.75 160 160)"/>
      <line x1="160" y1="12" x2="160" y2="24" stroke-width="2.5" transform="rotate(225 160 160)"/>
      <line x1="160" y1="13" x2="160" y2="20" transform="rotate(236.25 160 160)"/>
      <line x1="160" y1="13" x2="160" y2="20" transform="rotate(247.5 160 160)"/>
      <line x1="160" y1="13" x2="160" y2="20" transform="rotate(258.75 160 160)"/>
      <line x1="160" y1="12" x2="160" y2="24" stroke-width="2.5" transform="rotate(270 160 160)"/>
      <line x1="160" y1="13" x2="160" y2="20" transform="rotate(281.25 160 160)"/>
      <line x1="160" y1="13" x2="160" y2="20" transform="rotate(292.5 160 160)"/>
      <line x1="160" y1="13" x2="160" y2="20" transform="rotate(303.75 160 160)"/>
      <line x1="160" y1="12" x2="160" y2="24" stroke-width="2.5" transform="rotate(315 160 160)"/>
      <line x1="160" y1="13" x2="160" y2="20" transform="rotate(326.25 160 160)"/>
      <line x1="160" y1="13" x2="160" y2="20" transform="rotate(337.5 160 160)"/>
      <line x1="160" y1="13" x2="160" y2="20" transform="rotate(348.75 160 160)"/>
    </g>
    <g stroke="#081426" stroke-width="1.5" stroke-linejoin="round">
      <path d="M160 38 L160 160 L132 132 Z" fill="#f3f7ff"/>
      <path d="M160 38 L188 132 L160 160 Z" fill="#6d86b4"/>
      <path d="M160 38 L160 160 L132 132 Z" fill="#f3f7ff" transform="rotate(90 160 160)"/>
      <path d="M160 38 L188 132 L160 160 Z" fill="#6d86b4" transform="rotate(90 160 160)"/>
      <path d="M160 38 L160 160 L132 132 Z" fill="#f3f7ff" transform="rotate(180 160 160)"/>
      <path d="M160 38 L188 132 L160 160 Z" fill="#6d86b4" transform="rotate(180 160 160)"/>
      <path d="M160 38 L160 160 L132 132 Z" fill="#f3f7ff" transform="rotate(270 160 160)"/>
      <path d="M160 38 L188 132 L160 160 Z" fill="#6d86b4" transform="rotate(270 160 160)"/>
      <path d="M160 70 L160 160 L143 143 Z" fill="#a9bfe3" transform="rotate(45 160 160)"/>
      <path d="M160 70 L177 143 L160 160 Z" fill="#17345a" transform="rotate(45 160 160)"/>
      <path d="M160 70 L160 160 L143 143 Z" fill="#a9bfe3" transform="rotate(135 160 160)"/>
      <path d="M160 70 L177 143 L160 160 Z" fill="#17345a" transform="rotate(135 160 160)"/>
      <path d="M160 70 L160 160 L143 143 Z" fill="#a9bfe3" transform="rotate(225 160 160)"/>
      <path d="M160 70 L177 143 L160 160 Z" fill="#17345a" transform="rotate(225 160 160)"/>
      <path d="M160 70 L160 160 L143 143 Z" fill="#a9bfe3" transform="rotate(315 160 160)"/>
      <path d="M160 70 L177 143 L160 160 Z" fill="#17345a" transform="rotate(315 160 160)"/>
    </g>
    <path d="M160 18 L154 31 L148 27 L151 40 L160 49 L169 40 L172 27 L166 31 Z" fill="#ffb38f" stroke="#081426" stroke-width="1.5"/>
    <g fill="#f3f7ff" font-family="system-ui, sans-serif" font-size="11" font-weight="800" text-anchor="middle">
      <text x="160" y="61">N</text>
      <text x="160" y="61" transform="rotate(45 160 160)">NE</text>
      <text x="160" y="61" transform="rotate(90 160 160)">E</text>
      <text x="160" y="61" transform="rotate(135 160 160)">SE</text>
      <text x="160" y="61" transform="rotate(180 160 160)">S</text>
      <text x="160" y="61" transform="rotate(225 160 160)">SW</text>
      <text x="160" y="61" transform="rotate(270 160 160)">W</text>
      <text x="160" y="61" transform="rotate(315 160 160)">NW</text>
    </g>
  </g>
  <g data-part="fixed-indicator" aria-label="고정 지시자와 선택값">
    <path d="M160 3 L147 18 L153 31 L160 25 L167 31 L173 18 Z" fill="#ff7a45" stroke="#081426" stroke-width="2" stroke-linejoin="round"/>
    <line x1="160" y1="27" x2="160" y2="51" stroke="#ff7a45" stroke-width="3" stroke-linecap="round"/>
    <circle cx="160" cy="160" r="45" fill="#081426" stroke="#ffb38f" stroke-width="2"/>
    <circle cx="160" cy="160" r="37" fill="#0f2540" stroke="#17345a" stroke-width="2"/>
    <text x="160" y="154" fill="#f3f7ff" font-family="system-ui, sans-serif" font-size="17" font-weight="850" text-anchor="middle">북동</text>
    <text x="160" y="175" fill="#ffb38f" font-family="system-ui, sans-serif" font-size="13" font-weight="750" text-anchor="middle">045°</text>
  </g>
</svg>
