<svg xmlns="http://www.w3.org/2000/svg" viewBox="0 0 320 320">
  <g data-part="rotating-disc" stroke-linecap="round" stroke-linejoin="round">
    <circle cx="160" cy="160" r="151" fill="#f3f7ff" stroke="#2f5cff" stroke-width="1.50" stroke-opacity="0.12"/>
    <circle cx="160" cy="160" r="139" fill="#ffffff" stroke="#2f5cff" stroke-width="1" stroke-opacity="0.12"/>
    <path d="M160 56 C162 82 163 106 164 130 L168.40 151.60 L190 156 C211 157 236 158 264 160 C236 162 211 163 190 164 L168.40 168.40 L164 190 C163 211 162 236 160 264 C158 236 157 211 156 190 L151.60 168.40 L130 164 C109 163 84 162 56 160 C84 158 109 157 130 156 L151.60 151.60 L156 130 C157 109 158 84 160 56 Z" fill="#2f5cff" fill-opacity="0.55"/>
    <g fill="none" stroke="#2f5cff" stroke-width="2" stroke-opacity="0.55">
      <path d="M160 66 L160 76" transform="rotate(45 160 160)"/>
      <path d="M160 66 L160 76" transform="rotate(135 160 160)"/>
      <path d="M160 66 L160 76" transform="rotate(225 160 160)"/>
      <path d="M160 66 L160 76" transform="rotate(315 160 160)"/>
    </g>
    <g data-part="ring-labels" fill="#2f5cff" font-family="inherit" font-size="10" font-weight="600" text-anchor="middle" dominant-baseline="middle" letter-spacing="0.35">
      <text x="160" y="48">N</text>
      <text x="239.20" y="80.80" fill-opacity="0.55">NE</text>
      <text x="272" y="160">E</text>
      <text x="239.20" y="239.20" fill-opacity="0.55">SE</text>
      <text x="160" y="272">S</text>
      <text x="80.80" y="239.20" fill-opacity="0.55">SW</text>
      <text x="48" y="160">W</text>
      <text x="80.80" y="80.80" fill-opacity="0.55">NW</text>
    </g>
  </g>
  <g data-part="fixed-indicator" stroke-linecap="round" stroke-linejoin="round">
    <path d="M153 10 L160 23 L167 10 Z" fill="#FF7A45"/>
  </g>
</svg>
